<svg width="17" height="17" viewBox="0 0 17 17" fill="none" xmlns="http://www.w3.org/2000/svg">
<path fill-rule="evenodd" clip-rule="evenodd" d="M4.46501 1.33337L6.49914 1.33338C6.49897 1.33338 6.49932 1.33338 6.49914 1.33338C6.49932 1.33338 6.50003 1.33338 6.50021 1.33338H8.49923C8.49907 1.33338 8.49938 1.33338 8.49923 1.33338C8.49938 1.33338 8.49998 1.33338 8.50013 1.33338H10.4993C10.4992 1.33338 10.4994 1.33338 10.4993 1.33338C10.4994 1.33338 10.4999 1.33338 10.5 1.33338L12.8586 1.33338C13.305 1.33336 13.6774 1.33335 13.979 1.36403C14.2946 1.39614 14.5876 1.46595 14.8516 1.64235C15.0517 1.77611 15.2236 1.94798 15.3574 2.14816C15.5338 2.41216 15.6036 2.70507 15.6357 3.02072C15.6664 3.32228 15.6664 3.69477 15.6663 4.14116V4.19226C15.6664 4.63865 15.6664 5.01114 15.6357 5.3127C15.6036 5.62834 15.5338 5.92126 15.3574 6.18525C15.2236 6.38544 15.0517 6.55731 14.8516 6.69107C14.5876 6.86747 14.2946 6.93728 13.979 6.96939C13.6774 7.00006 13.305 7.00005 12.8586 7.00004L7.83301 7.00004C7.5046 7.00004 7.3086 7.0011 7.16812 7.01999C7.10375 7.02865 7.07151 7.03884 7.05699 7.04481C7.05362 7.0462 7.05141 7.04728 7.05012 7.04795L7.0485 7.04887L7.04758 7.05049C7.04691 7.05178 7.04583 7.05399 7.04445 7.05735C7.03847 7.07187 7.02828 7.10411 7.01963 7.16849C7.00074 7.30897 6.99968 7.50497 6.99968 7.83338L6.99968 12.8589C6.99969 13.3053 6.9997 13.6778 6.96902 13.9794C6.93691 14.295 6.8671 14.5879 6.6907 14.8519C6.55695 15.0521 6.38507 15.224 6.18489 15.3577C5.92089 15.5341 5.62798 15.6039 5.31233 15.6361C5.01077 15.6667 4.63828 15.6667 4.19189 15.6667H4.1408C3.6944 15.6667 3.32191 15.6667 3.02036 15.6361C2.70471 15.6039 2.41179 15.5341 2.1478 15.3577C1.94762 15.224 1.77574 15.0521 1.64198 14.8519C1.46558 14.5879 1.39578 14.295 1.36366 13.9794C1.33299 13.6778 1.333 13.3053 1.33301 12.8589L1.33301 4.46538C1.33299 3.86639 1.33297 3.36691 1.38628 2.97039C1.44255 2.55186 1.56633 2.17399 1.86998 1.87035C2.17363 1.5667 2.55149 1.44292 2.97002 1.38665C3.36654 1.33334 3.86602 1.33336 4.46501 1.33337ZM2.33301 7.00004H3.83301C4.10915 7.00004 4.33301 6.77619 4.33301 6.50004C4.33301 6.2239 4.10915 6.00004 3.83301 6.00004H2.33301V4.50004C2.33301 3.85737 2.33407 3.42566 2.37737 3.10364C2.41873 2.796 2.49021 2.66433 2.57709 2.57745C2.66396 2.49058 2.79563 2.41909 3.10327 2.37773C3.4253 2.33444 3.857 2.33338 4.49968 2.33338H5.99968L5.99968 3.83338C5.99968 4.10952 6.22353 4.33338 6.49968 4.33338C6.77582 4.33338 6.99968 4.10952 6.99968 3.83338L6.99968 2.33338H7.99968V3.16671C7.99968 3.44285 8.22353 3.66671 8.49968 3.66671C8.77582 3.66671 8.99968 3.44285 8.99968 3.16671V2.33338H9.99968V3.83338C9.99968 4.10952 10.2235 4.33338 10.4997 4.33338C10.7758 4.33338 10.9997 4.10952 10.9997 3.83338V2.33338H11.9997V3.16671C11.9997 3.44285 12.2235 3.66671 12.4997 3.66671C12.7758 3.66671 12.9997 3.44285 12.9997 3.16671V2.33344C13.3881 2.33388 13.6624 2.33699 13.8778 2.3589C14.1144 2.38296 14.2237 2.42551 14.296 2.47382C14.387 2.53462 14.4651 2.61274 14.5259 2.70373C14.5742 2.77603 14.6168 2.88535 14.6408 3.12193C14.6657 3.36686 14.6663 3.68815 14.6663 4.16671C14.6663 4.64527 14.6657 4.96655 14.6408 5.21149C14.6168 5.44807 14.5742 5.55738 14.5259 5.62968C14.4651 5.72067 14.387 5.7988 14.296 5.8596C14.2237 5.90791 14.1144 5.95045 13.8778 5.97452C13.6329 5.99944 13.3116 6.00004 12.833 6.00004H7.83301C7.82304 6.00004 7.81309 6.00004 7.80318 6.00004C7.51464 6.00001 7.25008 5.99998 7.03487 6.02891C6.79788 6.06077 6.5474 6.13574 6.34138 6.34175C6.13537 6.54777 6.0604 6.79825 6.02854 7.03524C5.99961 7.25045 5.99964 7.515 5.99967 7.80355C5.99967 7.81346 5.99968 7.8234 5.99968 7.83338V12.8334C5.99968 13.3119 5.99907 13.6332 5.97415 13.8782C5.95009 14.1147 5.90754 14.2241 5.85923 14.2964C5.79844 14.3873 5.72031 14.4655 5.62932 14.5263C5.55702 14.5746 5.4477 14.6171 5.21112 14.6412C4.96619 14.6661 4.6449 14.6667 4.16634 14.6667C3.68778 14.6667 3.3665 14.6661 3.12156 14.6412C2.88498 14.6171 2.77567 14.5746 2.70337 14.5263C2.61238 14.4655 2.53425 14.3873 2.47345 14.2964C2.42514 14.2241 2.3826 14.1147 2.35853 13.8782C2.33662 13.6628 2.33351 13.3884 2.33308 13H3.16634C3.44249 13 3.66634 12.7762 3.66634 12.5C3.66634 12.2239 3.44249 12 3.16634 12H2.33301V11L3.83301 11C4.10915 11 4.33301 10.7762 4.33301 10.5C4.33301 10.2239 4.10915 10 3.83301 10L2.33301 10V9.00004H3.16634C3.44249 9.00004 3.66634 8.77619 3.66634 8.50004C3.66634 8.2239 3.44249 8.00004 3.16634 8.00004H2.33301V7.00004Z" fill="#0A0613"/>
</svg>
