<svg width="15" height="15" viewBox="0 0 15 15" fill="none" xmlns="http://www.w3.org/2000/svg">
<path fill-rule="evenodd" clip-rule="evenodd" d="M3.08978 1.33337C2.48773 1.33337 1.99967 1.82143 1.99967 2.42348V7.00004H2.1892C2.19644 7.00003 2.20367 7.00003 2.21084 7.00004C2.2144 7.00004 2.21794 7.00004 2.22146 7.00004L12.7885 7.00004C12.7957 7.00003 12.8029 7.00003 12.8102 7.00004H14.1663C14.4425 7.00004 14.6663 7.2239 14.6663 7.50004C14.6663 7.77618 14.4425 8.00004 14.1663 8.00004H13.9877C13.9921 8.03001 13.9952 8.06034 13.9972 8.091C13.9997 8.12949 13.9997 8.17111 13.9997 8.21121L13.9997 8.23648C13.9997 8.48663 13.9997 8.63327 13.9893 8.79681C13.8947 10.2877 13.089 11.6645 11.9214 12.5647C11.9306 12.5791 11.9391 12.5942 11.9469 12.6098L12.6136 13.9431C12.737 14.1901 12.6369 14.4904 12.3899 14.6139C12.143 14.7374 11.8426 14.6373 11.7191 14.3903L11.074 13.1001C10.5395 13.3706 9.95819 13.5487 9.35361 13.6099C9.19062 13.6264 9.09115 13.6302 8.92168 13.6365L8.91722 13.6367C8.42374 13.6552 7.94067 13.6667 7.49967 13.6667C7.05868 13.6667 6.57561 13.6552 6.08213 13.6367L6.07767 13.6365C5.9082 13.6302 5.80873 13.6264 5.64574 13.6099C5.04116 13.5487 4.45986 13.3706 3.92535 13.1001L3.28022 14.3903C3.15673 14.6373 2.85639 14.7374 2.6094 14.6139C2.36241 14.4904 2.2623 14.1901 2.38579 13.9431L3.05246 12.6098C3.06027 12.5942 3.06878 12.5791 3.07794 12.5647C1.91031 11.6645 1.10467 10.2877 1.01005 8.79681C0.999668 8.63325 0.999671 8.4866 0.999674 8.23641L0.999674 8.22183C0.999674 8.2183 0.999673 8.21476 0.999671 8.21121C0.999665 8.19889 0.999659 8.18642 0.999726 8.17394C0.999692 8.17153 0.999674 8.16912 0.999674 8.16671V8.00004H0.833008C0.556865 8.00004 0.333008 7.77618 0.333008 7.50004C0.333008 7.2239 0.556865 7.00004 0.833008 7.00004H0.999674V2.42348C0.999674 1.26915 1.93545 0.333374 3.08978 0.333374C3.94444 0.333374 4.71299 0.853709 5.0304 1.64724L5.10383 1.8308C5.63269 1.69663 6.20656 1.72772 6.74745 1.9588C7.42432 2.24797 7.91685 2.79357 8.16909 3.43373C8.2681 3.685 8.14968 3.96949 7.90161 4.07628L3.92777 5.787C3.80349 5.8405 3.66283 5.84135 3.53791 5.78935C3.41299 5.73735 3.31448 5.63694 3.26488 5.51105C3.01273 4.87114 2.99762 4.13014 3.27783 3.44013C3.4773 2.94894 3.8011 2.54623 4.19744 2.25742L4.10193 2.01863C3.93638 1.60476 3.53554 1.33337 3.08978 1.33337ZM2.22146 8.00004C2.19475 8.00004 2.17885 8.00005 2.16685 8.00018C2.15811 8.00028 2.155 8.00043 2.15488 8.00043C2.15485 8.00043 2.15444 8.00046 2.15488 8.00043C2.0715 8.00585 2.0057 8.07212 2.00006 8.15544C2.00002 8.15623 1.9999 8.15957 1.99982 8.16721C1.99968 8.17922 1.99967 8.19512 1.99967 8.22183C1.99967 8.49026 1.99988 8.6049 2.00804 8.73347C2.13166 10.6812 3.80475 12.4184 5.7465 12.615C5.87647 12.6282 5.94842 12.631 6.11967 12.6374C6.60502 12.6556 7.07492 12.6667 7.49967 12.6667C7.92443 12.6667 8.39432 12.6556 8.87968 12.6374C9.05093 12.631 9.12288 12.6282 9.25285 12.615C11.1946 12.4184 12.8677 10.6812 12.9913 8.73347C12.9995 8.6049 12.9997 8.49026 12.9997 8.22183C12.9997 8.19512 12.9997 8.17922 12.9995 8.16721C12.9995 8.16045 12.9994 8.15706 12.9993 8.15582C12.9993 8.15497 12.9993 8.15505 12.9993 8.15582C12.9939 8.07229 12.9274 8.00582 12.8438 8.00039C12.8446 8.00045 12.8448 8.00043 12.8438 8.00039C12.8425 8.00035 12.839 8.00026 12.8325 8.00018C12.8205 8.00005 12.8046 8.00004 12.7779 8.00004H2.22146ZM6.35458 2.87839C5.91638 2.69119 5.44269 2.71723 5.03776 2.91436C4.67852 3.08924 4.3738 3.39911 4.20435 3.81638C4.09534 4.08481 4.05591 4.36441 4.07733 4.63389L6.99809 3.37651C6.83183 3.1623 6.6139 2.98918 6.35458 2.87839Z" fill="#0A0613"/>
</svg>
