<svg width="15" height="13" viewBox="0 0 15 13" fill="none" xmlns="http://www.w3.org/2000/svg">
<path fill-rule="evenodd" clip-rule="evenodd" d="M6.7954 0.666626H8.20395C9.42913 0.666616 10.3995 0.666607 11.159 0.768716C11.9406 0.873801 12.5733 1.09521 13.0722 1.59412C13.5711 2.09303 13.7925 2.72566 13.8976 3.50728C13.9985 4.25779 13.9997 5.2143 13.9997 6.41908C14.2289 6.60823 14.411 6.85208 14.5268 7.13171C14.607 7.3253 14.6381 7.52498 14.6525 7.73638C14.6664 7.93946 14.6663 8.18682 14.6663 8.48312V8.5168C14.6663 8.8131 14.6664 9.06046 14.6525 9.26354C14.6381 9.47494 14.607 9.67462 14.5268 9.86821C14.3407 10.3174 13.9838 10.6743 13.5346 10.8604C13.341 10.9406 13.1413 10.9717 12.9299 10.9861C12.8492 10.9916 12.7614 10.9949 12.6663 10.9969V11.8333C12.6663 12.1094 12.4425 12.3333 12.1663 12.3333C11.8902 12.3333 11.6663 12.1094 11.6663 11.8333V11H3.33301V11.8333C3.33301 12.1094 3.10915 12.3333 2.83301 12.3333C2.55687 12.3333 2.33301 12.1094 2.33301 11.8333V10.9969C2.23795 10.9949 2.15019 10.9916 2.06943 10.9861C1.85803 10.9717 1.65835 10.9406 1.46476 10.8604C1.01554 10.6743 0.658635 10.3174 0.472562 9.86821C0.392374 9.67462 0.361278 9.47494 0.346855 9.26354C0.332999 9.06046 0.333003 8.8131 0.333008 8.51679V8.48313C0.333003 8.18682 0.332999 7.93946 0.346855 7.73638C0.361278 7.52498 0.392374 7.3253 0.472562 7.13171C0.588387 6.85208 0.770403 6.60823 0.999674 6.41908C0.999678 5.2143 1.00086 4.25779 1.10176 3.50728C1.20685 2.72566 1.42826 2.09303 1.92717 1.59412C2.42608 1.09521 3.05871 0.873801 3.84033 0.768716C4.5998 0.666607 5.57022 0.666616 6.7954 0.666626ZM1.99993 6.01923C2.02296 6.01719 2.04613 6.0154 2.06943 6.01381C2.23727 6.00235 2.43537 6.00037 2.66634 6.00003L2.66634 5.46529C2.66632 4.86631 2.6663 4.36683 2.71962 3.97031C2.77589 3.55178 2.89967 3.17391 3.20331 2.87026C3.50696 2.56662 3.88483 2.44284 4.30336 2.38657C4.69988 2.33326 5.19936 2.33327 5.79834 2.33329H9.20101C9.8 2.33327 10.2995 2.33326 10.696 2.38657C11.1145 2.44284 11.4924 2.56662 11.796 2.87026C12.0997 3.17391 12.2235 3.55178 12.2797 3.97031C12.333 4.36683 12.333 4.86631 12.333 5.4653V6.00003C12.564 6.00037 12.7621 6.00235 12.9299 6.01381C12.9532 6.0154 12.9764 6.01719 12.9994 6.01923C12.9978 4.99599 12.9866 4.23593 12.9065 3.64053C12.8163 2.9698 12.6472 2.58337 12.3651 2.30123C12.0829 2.01909 11.6965 1.84998 11.0258 1.7598C10.3407 1.66769 9.43756 1.66663 8.16634 1.66663H6.83301C5.5618 1.66663 4.65868 1.66769 3.97357 1.7598C3.30285 1.84998 2.91642 2.01909 2.63428 2.30123C2.35214 2.58337 2.18302 2.9698 2.09285 3.64053C2.0128 4.23593 2.00151 4.99599 1.99993 6.01923ZM11.333 5.99996V5.49996C11.333 4.85729 11.3319 4.42558 11.2887 4.10355C11.2473 3.79591 11.1758 3.66425 11.0889 3.57737C11.0021 3.49049 10.8704 3.41901 10.5627 3.37765C10.2407 3.33436 9.80902 3.33329 9.16634 3.33329H7.99968V5.99996H11.333ZM6.99968 5.99996V3.33329H5.83301C5.19033 3.33329 4.75863 3.33436 4.4366 3.37765C4.12896 3.41901 3.9973 3.49049 3.91042 3.57737C3.82354 3.66425 3.75206 3.79591 3.7107 4.10355C3.6674 4.42558 3.66634 4.85729 3.66634 5.49996V5.99996H6.99968ZM2.1375 7.01149C1.97702 7.02244 1.89887 7.04209 1.84744 7.06339C1.64325 7.14797 1.48102 7.3102 1.39644 7.51439C1.37514 7.56583 1.35548 7.64397 1.34454 7.80446C1.33328 7.96943 1.33301 8.18249 1.33301 8.49996C1.33301 8.81743 1.33328 9.03049 1.34454 9.19547C1.35548 9.35595 1.37514 9.4341 1.39644 9.48553C1.48102 9.68972 1.64325 9.85195 1.84744 9.93653C1.89887 9.95783 1.97702 9.97748 2.1375 9.98843C2.30248 9.99969 2.51554 9.99996 2.83301 9.99996H12.1663C12.4838 9.99996 12.6969 9.99969 12.8618 9.98843C13.0223 9.97748 13.1005 9.95783 13.1519 9.93653C13.3561 9.85195 13.5183 9.68972 13.6029 9.48553C13.6242 9.4341 13.6439 9.35595 13.6548 9.19547C13.6661 9.03049 13.6663 8.81743 13.6663 8.49996C13.6663 8.18249 13.6661 7.96943 13.6548 7.80446C13.6439 7.64397 13.6242 7.56583 13.6029 7.51439C13.5183 7.3102 13.3561 7.14797 13.1519 7.06339C13.1005 7.04209 13.0223 7.02244 12.8618 7.01149C12.6969 7.00023 12.4838 6.99996 12.1663 6.99996H2.83301C2.51554 6.99996 2.30248 7.00023 2.1375 7.01149Z" fill="#0A0613"/>
</svg>
