<svg xmlns="http://www.w3.org/2000/svg" xmlns:xlink="http://www.w3.org/1999/xlink" width="500" zoomAndPan="magnify" viewBox="0 0 375 374.999991" height="500" preserveAspectRatio="xMidYMid meet" version="1.0"><defs><g/><clipPath id="19b443fa39"><path d="M 119.195312 130 L 265 130 L 265 219.953125 L 119.195312 219.953125 Z M 119.195312 130 " clip-rule="nonzero"/></clipPath><clipPath id="c874715f14"><path d="M 119.558594 169.332031 L 119.558594 219.515625 L 164.367188 179.527344 L 206.261719 219.515625 L 264.957031 219.515625 L 163.695312 130.351562 Z M 119.558594 169.332031 " clip-rule="nonzero"/></clipPath><clipPath id="ae5e480fe5"><path d="M 171.050781 97.390625 L 281 97.390625 L 281 221 L 171.050781 221 Z M 171.050781 97.390625 " clip-rule="nonzero"/></clipPath><clipPath id="7b600d30e3"><path d="M 171.085938 122.734375 L 197.746094 97.753906 L 280.640625 173.589844 L 280.640625 220.636719 Z M 171.085938 122.734375 " clip-rule="nonzero"/></clipPath></defs><rect x="-37.5" width="450" fill="#ffffff" y="-37.499999" height="449.999989" fill-opacity="1"/><g clip-path="url(#19b443fa39)"><g clip-path="url(#c874715f14)"><path fill="#3fc4dc" d="M 113.957031 92.152344 L 286.277344 92.152344 L 286.277344 226.238281 L 113.957031 226.238281 Z M 113.957031 92.152344 " fill-opacity="1" fill-rule="nonzero"/></g></g><g clip-path="url(#ae5e480fe5)"><g clip-path="url(#7b600d30e3)"><path fill="#002b6d" d="M 113.957031 92.152344 L 286.277344 92.152344 L 286.277344 226.238281 L 113.957031 226.238281 Z M 113.957031 92.152344 " fill-opacity="1" fill-rule="nonzero"/></g></g><g fill="#002b6d" fill-opacity="1"><g transform="translate(132.037628, 252.233664)"><g><path d="M 2.59375 0 L 2.59375 -20.671875 L 9.609375 -20.671875 C 11.796875 -20.671875 13.625 -20.207031 15.09375 -19.28125 C 16.5625 -18.363281 17.660156 -17.125 18.390625 -15.5625 C 19.128906 -14 19.5 -12.265625 19.5 -10.359375 C 19.5 -8.265625 19.097656 -6.441406 18.296875 -4.890625 C 17.492188 -3.335938 16.347656 -2.132812 14.859375 -1.28125 C 13.378906 -0.425781 11.628906 0 9.609375 0 Z M 17.46875 -10.359375 C 17.46875 -12.015625 17.160156 -13.484375 16.546875 -14.765625 C 15.929688 -16.046875 15.039062 -17.046875 13.875 -17.765625 C 12.71875 -18.492188 11.296875 -18.859375 9.609375 -18.859375 L 4.625 -18.859375 L 4.625 -1.8125 L 9.609375 -1.8125 C 11.316406 -1.8125 12.75 -2.1875 13.90625 -2.9375 C 15.070312 -3.695312 15.957031 -4.722656 16.5625 -6.015625 C 17.164062 -7.304688 17.46875 -8.753906 17.46875 -10.359375 Z M 17.46875 -10.359375 "/></g></g></g><g fill="#002b6d" fill-opacity="1"><g transform="translate(152.849295, 252.233664)"><g><path d="M 16.46875 -1.8125 L 16.46875 0 L 2.59375 0 L 2.59375 -20.671875 L 16.21875 -20.671875 L 16.21875 -18.859375 L 4.625 -18.859375 L 4.625 -11.40625 L 14.734375 -11.40625 L 14.734375 -9.6875 L 4.625 -9.6875 L 4.625 -1.8125 Z M 16.46875 -1.8125 "/></g></g></g><g fill="#002b6d" fill-opacity="1"><g transform="translate(170.575595, 252.233664)"><g><path d="M 2.59375 0 L 2.59375 -20.671875 L 11.328125 -20.671875 C 12.210938 -20.671875 13.023438 -20.484375 13.765625 -20.109375 C 14.503906 -19.742188 15.148438 -19.242188 15.703125 -18.609375 C 16.253906 -17.984375 16.679688 -17.285156 16.984375 -16.515625 C 17.285156 -15.753906 17.4375 -14.972656 17.4375 -14.171875 C 17.4375 -13.179688 17.242188 -12.25 16.859375 -11.375 C 16.484375 -10.507812 15.953125 -9.773438 15.265625 -9.171875 C 14.578125 -8.566406 13.769531 -8.164062 12.84375 -7.96875 L 17.90625 0 L 15.609375 0 L 10.734375 -7.625 L 4.625 -7.625 L 4.625 0 Z M 4.625 -9.4375 L 11.375 -9.4375 C 12.195312 -9.4375 12.90625 -9.65625 13.5 -10.09375 C 14.101562 -10.539062 14.570312 -11.128906 14.90625 -11.859375 C 15.238281 -12.585938 15.40625 -13.359375 15.40625 -14.171875 C 15.40625 -15.003906 15.210938 -15.773438 14.828125 -16.484375 C 14.453125 -17.191406 13.945312 -17.765625 13.3125 -18.203125 C 12.6875 -18.640625 11.984375 -18.859375 11.203125 -18.859375 L 4.625 -18.859375 Z M 4.625 -9.4375 "/></g></g></g><g fill="#002b6d" fill-opacity="1"><g transform="translate(189.582608, 252.233664)"><g><path d="M 9 -20.671875 L 10.71875 -20.671875 L 19.296875 0 L 17.140625 0 L 14.46875 -6.46875 L 5.1875 -6.46875 L 2.53125 0 L 0.34375 0 Z M 14 -8.0625 L 9.84375 -18.28125 L 5.625 -8.0625 Z M 14 -8.0625 "/></g></g></g><g fill="#3fc4dc" fill-opacity="1"><g transform="translate(209.266096, 252.233664)"><g><path d="M 20.90625 0 L 20.90625 -16.828125 L 13.421875 -3.75 L 12.140625 -3.75 L 4.625 -16.828125 L 4.625 0 L 2.59375 0 L 2.59375 -20.671875 L 4.6875 -20.671875 L 12.75 -6.515625 L 20.875 -20.671875 L 22.9375 -20.671875 L 22.9375 0 Z M 20.90625 0 "/></g></g></g><g fill="#3fc4dc" fill-opacity="1"><g transform="translate(234.793133, 252.233664)"><g><path d="M 9 -20.671875 L 10.71875 -20.671875 L 19.296875 0 L 17.140625 0 L 14.46875 -6.46875 L 5.1875 -6.46875 L 2.53125 0 L 0.34375 0 Z M 14 -8.0625 L 9.84375 -18.28125 L 5.625 -8.0625 Z M 14 -8.0625 "/></g></g></g><g fill="#3fc4dc" fill-opacity="1"><g transform="translate(254.469606, 252.233664)"><g><path d="M 9 -20.671875 L 10.71875 -20.671875 L 19.296875 0 L 17.140625 0 L 14.46875 -6.46875 L 5.1875 -6.46875 L 2.53125 0 L 0.34375 0 Z M 14 -8.0625 L 9.84375 -18.28125 L 5.625 -8.0625 Z M 14 -8.0625 "/></g></g></g></svg>