<svg width="15" height="14" viewBox="0 0 15 14" fill="none" xmlns="http://www.w3.org/2000/svg">
<path fill-rule="evenodd" clip-rule="evenodd" d="M10.333 1V2.12635L11.6664 3.19302V1H10.333ZM12.6664 3.99302V0.833333C12.6664 0.373096 12.2933 0 11.833 0H10.1664C9.70612 0 9.33303 0.373096 9.33303 0.833333V1.32635L9.06143 1.10908C8.14838 0.378641 6.851 0.378641 5.93795 1.10908L0.520679 5.4429C0.305048 5.6154 0.270087 5.93005 0.442592 6.14568C0.615097 6.36131 0.929743 6.39627 1.14537 6.22377L1.66636 5.80698V12.6667H0.833026C0.556884 12.6667 0.333026 12.8905 0.333026 13.1667C0.333026 13.4428 0.556884 13.6667 0.833026 13.6667H14.1664C14.4425 13.6667 14.6664 13.4428 14.6664 13.1667C14.6664 12.8905 14.4425 12.6667 14.1664 12.6667H13.333V5.80698L13.854 6.22377C14.0696 6.39627 14.3843 6.36131 14.5568 6.14568C14.7293 5.93005 14.6943 5.6154 14.4787 5.4429L12.6664 3.99302ZM12.333 5.00698L8.43674 1.88995C7.88891 1.45168 7.11048 1.45168 6.56265 1.88995L2.66636 5.00698V12.6667H4.99969L4.99969 9.80042C4.99967 9.35718 4.99965 8.97527 5.04076 8.66944C5.08483 8.34168 5.1842 8.0275 5.43903 7.77267C5.69386 7.51784 6.00804 7.41847 6.3358 7.3744C6.64163 7.33329 7.02354 7.33331 7.46678 7.33333H7.53261C7.97585 7.33331 8.35776 7.33329 8.66359 7.3744C8.99135 7.41847 9.30552 7.51784 9.56035 7.77267C9.81518 8.0275 9.91456 8.34168 9.95862 8.66944C9.99974 8.97527 9.99972 9.35718 9.99969 9.80042L9.99969 12.6667H12.333V5.00698ZM8.99969 12.6667V9.83333C8.99969 9.34779 8.99863 9.03394 8.96754 8.80269C8.93838 8.58582 8.89131 8.51784 8.85325 8.47978C8.81518 8.44172 8.74721 8.39464 8.53034 8.36549C8.29909 8.3344 7.98523 8.33333 7.49969 8.33333C7.01415 8.33333 6.7003 8.3344 6.46905 8.36549C6.25218 8.39464 6.1842 8.44172 6.14614 8.47978C6.10808 8.51784 6.061 8.58582 6.03185 8.80269C6.00075 9.03394 5.99969 9.34779 5.99969 9.83333V12.6667H8.99969ZM7.49969 4C7.03946 4 6.66636 4.3731 6.66636 4.83333C6.66636 5.29357 7.03946 5.66667 7.49969 5.66667C7.95993 5.66667 8.33303 5.29357 8.33303 4.83333C8.33303 4.3731 7.95993 4 7.49969 4ZM5.66636 4.83333C5.66636 3.82081 6.48717 3 7.49969 3C8.51222 3 9.33303 3.82081 9.33303 4.83333C9.33303 5.84586 8.51222 6.66667 7.49969 6.66667C6.48717 6.66667 5.66636 5.84586 5.66636 4.83333Z" fill="#0A0613"/>
</svg>
